<mxfile host="app.diagrams.net" modified="2022-09-15T07:07:24.225Z" agent="5.0 (Windows NT 10.0; Win64; x64) AppleWebKit/537.36 (KHTML, like Gecko) Chrome/105.0.0.0 Safari/537.36" etag="nGLsye9P_kv2qjNrKP_h" version="17.4.6" type="github">
  <diagram id="KJmeRo8XS6WreGLl0O58" name="Page-1">
    <mxGraphModel dx="2591" dy="794" grid="1" gridSize="10" guides="1" tooltips="1" connect="1" arrows="1" fold="1" page="1" pageScale="1" pageWidth="1169" pageHeight="827" math="0" shadow="0">
      <root>
        <mxCell id="0" />
        <mxCell id="1" parent="0" />
        <mxCell id="bY7UUS2bZ9zmFqtlnWKo-1" value="" style="endArrow=open;html=1;rounded=0;startArrow=oval;startFill=1;endFill=0;entryX=0.5;entryY=0;entryDx=0;entryDy=0;entryPerimeter=0;" edge="1" parent="1" target="bY7UUS2bZ9zmFqtlnWKo-2">
          <mxGeometry width="50" height="50" relative="1" as="geometry">
            <mxPoint x="560" y="40" as="sourcePoint" />
            <mxPoint x="560" y="80" as="targetPoint" />
          </mxGeometry>
        </mxCell>
        <mxCell id="bY7UUS2bZ9zmFqtlnWKo-2" value="เข้า Home page" style="rounded=1;whiteSpace=wrap;html=1;" vertex="1" parent="1">
          <mxGeometry x="500" y="80" width="120" height="60" as="geometry" />
        </mxCell>
        <mxCell id="bY7UUS2bZ9zmFqtlnWKo-3" value="" style="endArrow=classic;html=1;rounded=0;exitX=0.5;exitY=1;exitDx=0;exitDy=0;" edge="1" parent="1" source="bY7UUS2bZ9zmFqtlnWKo-2">
          <mxGeometry width="50" height="50" relative="1" as="geometry">
            <mxPoint x="630" y="190" as="sourcePoint" />
            <mxPoint x="400" y="200" as="targetPoint" />
            <Array as="points">
              <mxPoint x="560" y="170" />
              <mxPoint x="400" y="170" />
            </Array>
          </mxGeometry>
        </mxCell>
        <mxCell id="bY7UUS2bZ9zmFqtlnWKo-4" value="" style="endArrow=classic;html=1;rounded=0;" edge="1" parent="1">
          <mxGeometry width="50" height="50" relative="1" as="geometry">
            <mxPoint x="560" y="140" as="sourcePoint" />
            <mxPoint x="720" y="200" as="targetPoint" />
            <Array as="points">
              <mxPoint x="560" y="170" />
              <mxPoint x="720" y="170" />
            </Array>
          </mxGeometry>
        </mxCell>
        <mxCell id="bY7UUS2bZ9zmFqtlnWKo-5" value="Login" style="rounded=1;whiteSpace=wrap;html=1;" vertex="1" parent="1">
          <mxGeometry x="340" y="200" width="120" height="60" as="geometry" />
        </mxCell>
        <mxCell id="bY7UUS2bZ9zmFqtlnWKo-6" value="Signup" style="rounded=1;whiteSpace=wrap;html=1;" vertex="1" parent="1">
          <mxGeometry x="660" y="200" width="120" height="60" as="geometry" />
        </mxCell>
        <mxCell id="bY7UUS2bZ9zmFqtlnWKo-7" value="" style="endArrow=classic;html=1;rounded=0;exitX=0.5;exitY=1;exitDx=0;exitDy=0;" edge="1" parent="1" source="bY7UUS2bZ9zmFqtlnWKo-5">
          <mxGeometry width="50" height="50" relative="1" as="geometry">
            <mxPoint x="600" y="210" as="sourcePoint" />
            <mxPoint x="400" y="320" as="targetPoint" />
          </mxGeometry>
        </mxCell>
        <mxCell id="bY7UUS2bZ9zmFqtlnWKo-8" value="Main page" style="rounded=1;whiteSpace=wrap;html=1;" vertex="1" parent="1">
          <mxGeometry x="340" y="320" width="120" height="60" as="geometry" />
        </mxCell>
        <mxCell id="bY7UUS2bZ9zmFqtlnWKo-9" value="" style="endArrow=classic;html=1;rounded=0;exitX=0;exitY=0.25;exitDx=0;exitDy=0;entryX=1;entryY=0.25;entryDx=0;entryDy=0;" edge="1" parent="1" source="bY7UUS2bZ9zmFqtlnWKo-6" target="bY7UUS2bZ9zmFqtlnWKo-5">
          <mxGeometry width="50" height="50" relative="1" as="geometry">
            <mxPoint x="600" y="210" as="sourcePoint" />
            <mxPoint x="720" y="320" as="targetPoint" />
          </mxGeometry>
        </mxCell>
        <mxCell id="bY7UUS2bZ9zmFqtlnWKo-11" value="ลงทะเบียนสำเร็จ" style="text;html=1;strokeColor=none;fillColor=none;align=center;verticalAlign=middle;whiteSpace=wrap;rounded=0;" vertex="1" parent="1">
          <mxGeometry x="510" y="190" width="100" height="30" as="geometry" />
        </mxCell>
        <mxCell id="bY7UUS2bZ9zmFqtlnWKo-12" value="Forget Password" style="rounded=1;whiteSpace=wrap;html=1;" vertex="1" parent="1">
          <mxGeometry x="120" y="200" width="120" height="60" as="geometry" />
        </mxCell>
        <mxCell id="bY7UUS2bZ9zmFqtlnWKo-13" value="สำเร็จ" style="text;html=1;strokeColor=none;fillColor=none;align=center;verticalAlign=middle;whiteSpace=wrap;rounded=0;" vertex="1" parent="1">
          <mxGeometry x="400" y="280" width="60" height="30" as="geometry" />
        </mxCell>
        <mxCell id="bY7UUS2bZ9zmFqtlnWKo-14" value="" style="endArrow=classic;html=1;rounded=0;exitX=0;exitY=0.5;exitDx=0;exitDy=0;entryX=1;entryY=0.5;entryDx=0;entryDy=0;" edge="1" parent="1" source="bY7UUS2bZ9zmFqtlnWKo-5" target="bY7UUS2bZ9zmFqtlnWKo-12">
          <mxGeometry width="50" height="50" relative="1" as="geometry">
            <mxPoint x="490" y="330" as="sourcePoint" />
            <mxPoint x="540" y="280" as="targetPoint" />
          </mxGeometry>
        </mxCell>
        <mxCell id="bY7UUS2bZ9zmFqtlnWKo-16" value="" style="endArrow=classic;html=1;rounded=0;entryX=0;entryY=0.75;entryDx=0;entryDy=0;exitX=1;exitY=0.75;exitDx=0;exitDy=0;" edge="1" parent="1" source="bY7UUS2bZ9zmFqtlnWKo-5" target="bY7UUS2bZ9zmFqtlnWKo-6">
          <mxGeometry width="50" height="50" relative="1" as="geometry">
            <mxPoint x="410" y="320" as="sourcePoint" />
            <mxPoint x="460" y="270" as="targetPoint" />
          </mxGeometry>
        </mxCell>
        <mxCell id="bY7UUS2bZ9zmFqtlnWKo-17" value="ยังไม่ได้ลงทะเบียน" style="text;html=1;strokeColor=none;fillColor=none;align=center;verticalAlign=middle;whiteSpace=wrap;rounded=0;" vertex="1" parent="1">
          <mxGeometry x="510" y="240" width="100" height="30" as="geometry" />
        </mxCell>
        <mxCell id="bY7UUS2bZ9zmFqtlnWKo-18" value="" style="endArrow=classic;html=1;rounded=0;exitX=1;exitY=0.25;exitDx=0;exitDy=0;entryX=0;entryY=0.25;entryDx=0;entryDy=0;" edge="1" parent="1" source="bY7UUS2bZ9zmFqtlnWKo-12" target="bY7UUS2bZ9zmFqtlnWKo-5">
          <mxGeometry width="50" height="50" relative="1" as="geometry">
            <mxPoint x="410" y="310" as="sourcePoint" />
            <mxPoint x="460" y="260" as="targetPoint" />
          </mxGeometry>
        </mxCell>
        <mxCell id="bY7UUS2bZ9zmFqtlnWKo-19" value="" style="rounded=1;whiteSpace=wrap;html=1;" vertex="1" parent="1">
          <mxGeometry x="340" y="440" width="120" height="60" as="geometry" />
        </mxCell>
        <mxCell id="bY7UUS2bZ9zmFqtlnWKo-20" value="" style="endArrow=classic;html=1;rounded=0;exitX=0.5;exitY=1;exitDx=0;exitDy=0;entryX=0.5;entryY=0;entryDx=0;entryDy=0;" edge="1" parent="1" source="bY7UUS2bZ9zmFqtlnWKo-8" target="bY7UUS2bZ9zmFqtlnWKo-19">
          <mxGeometry width="50" height="50" relative="1" as="geometry">
            <mxPoint x="410" y="380" as="sourcePoint" />
            <mxPoint x="460" y="330" as="targetPoint" />
          </mxGeometry>
        </mxCell>
        <mxCell id="bY7UUS2bZ9zmFqtlnWKo-29" value="" style="group" vertex="1" connectable="0" parent="1">
          <mxGeometry x="-880" y="40" width="400" height="720" as="geometry" />
        </mxCell>
        <mxCell id="bY7UUS2bZ9zmFqtlnWKo-23" value="นักศึกษา" style="swimlane;verticalAlign=middle;" vertex="1" parent="bY7UUS2bZ9zmFqtlnWKo-29">
          <mxGeometry width="200" height="720" as="geometry" />
        </mxCell>
        <mxCell id="bY7UUS2bZ9zmFqtlnWKo-30" value="" style="ellipse;whiteSpace=wrap;html=1;aspect=fixed;fillColor=#000000;" vertex="1" parent="bY7UUS2bZ9zmFqtlnWKo-23">
          <mxGeometry x="95" y="40" width="10" height="10" as="geometry" />
        </mxCell>
        <mxCell id="bY7UUS2bZ9zmFqtlnWKo-32" value="นักศึกษาเข้าระบบ" style="rounded=1;whiteSpace=wrap;html=1;fillColor=#FFFFFF;" vertex="1" parent="bY7UUS2bZ9zmFqtlnWKo-23">
          <mxGeometry x="40" y="80" width="120" height="60" as="geometry" />
        </mxCell>
        <mxCell id="bY7UUS2bZ9zmFqtlnWKo-36" value="เลือกโจทย์ที่จะทำ" style="rounded=1;whiteSpace=wrap;html=1;fillColor=#FFFFFF;" vertex="1" parent="bY7UUS2bZ9zmFqtlnWKo-23">
          <mxGeometry x="40" y="320" width="120" height="60" as="geometry" />
        </mxCell>
        <mxCell id="bY7UUS2bZ9zmFqtlnWKo-37" value="ส่ง" style="rounded=1;whiteSpace=wrap;html=1;fillColor=#FFFFFF;" vertex="1" parent="bY7UUS2bZ9zmFqtlnWKo-23">
          <mxGeometry x="40" y="450" width="120" height="60" as="geometry" />
        </mxCell>
        <mxCell id="bY7UUS2bZ9zmFqtlnWKo-26" value="อาจารย์" style="swimlane;" vertex="1" parent="bY7UUS2bZ9zmFqtlnWKo-29">
          <mxGeometry x="200" width="200" height="720" as="geometry">
            <mxRectangle x="200" width="70" height="23" as="alternateBounds" />
          </mxGeometry>
        </mxCell>
        <mxCell id="bY7UUS2bZ9zmFqtlnWKo-33" value="&lt;span&gt;เข้าระบบ&lt;/span&gt;" style="rounded=1;whiteSpace=wrap;html=1;fillColor=#FFFFFF;" vertex="1" parent="bY7UUS2bZ9zmFqtlnWKo-26">
          <mxGeometry x="40" y="80" width="120" height="60" as="geometry" />
        </mxCell>
        <mxCell id="bY7UUS2bZ9zmFqtlnWKo-35" value="สร้างโจทย์" style="rounded=1;whiteSpace=wrap;html=1;fillColor=#FFFFFF;" vertex="1" parent="bY7UUS2bZ9zmFqtlnWKo-26">
          <mxGeometry x="40" y="200" width="120" height="60" as="geometry" />
        </mxCell>
        <mxCell id="bY7UUS2bZ9zmFqtlnWKo-34" value="เปิดโจทย์ให้นักศึกษาทำ" style="rounded=1;whiteSpace=wrap;html=1;fillColor=#FFFFFF;" vertex="1" parent="bY7UUS2bZ9zmFqtlnWKo-26">
          <mxGeometry x="40" y="320" width="120" height="60" as="geometry" />
        </mxCell>
        <mxCell id="bY7UUS2bZ9zmFqtlnWKo-40" value="หมดเวลาทำโจทย์" style="rounded=1;whiteSpace=wrap;html=1;fillColor=#FFFFFF;" vertex="1" parent="bY7UUS2bZ9zmFqtlnWKo-26">
          <mxGeometry x="36" y="570" width="120" height="60" as="geometry" />
        </mxCell>
        <mxCell id="bY7UUS2bZ9zmFqtlnWKo-39" value="ดูคะแนน" style="rounded=1;whiteSpace=wrap;html=1;fillColor=#FFFFFF;" vertex="1" parent="bY7UUS2bZ9zmFqtlnWKo-26">
          <mxGeometry x="40" y="450" width="120" height="60" as="geometry" />
        </mxCell>
      </root>
    </mxGraphModel>
  </diagram>
</mxfile>
